<svg xmlns="http://www.w3.org/2000/svg" viewBox="0 0 2461 464">
  <defs>
    <style>
      .cls-1 {
        fill: #f20045;
      }

      .cls-1, .cls-2 {
        fill-rule: evenodd;
      }

      .cls-2 {
        fill: #fcff07;
      }
    </style>
  </defs>
  <path id="box" class="cls-1" d="M440.989,409.449l0.99-130.893L335.046,331.112V461.987ZM263.162,290.668L226.116,272.4,331.1,219.172l36.21,17.761Zm130.853-40.524c24.451,11.993,44,21.471,44,21.471L331.086,324.17,289.1,303.108Zm-104.88,62.2,38.08,18.767s-0.047,84.013-.073,130.9L222.173,409.449s-0.017-120.333-.017-130.111l40.989,20.2-0.021,32.551,25.979,13.99Z"/>
  <path id="box_contour" data-name="box contour" class="cls-2" d="M335.064,462V331.089l106.911-52.964v-4l-4-3L331.068,324.094,226.155,272.129l-4,2v5l104.913,51.965V462l4,2,4-2"/>
  <path id="Color_Fill_1" data-name="Color Fill 1" class="cls-1" d="M192.762,18.91v87.82c-23.9.384-47.952-3.3-66.268-10V95.613q10.32-34.457,20.641-68.922C161.263,23.049,174.763,19.115,192.762,18.91Zm17.381,0c17.764-.253,31.818,3.906,45.627,7.782,4.492,22.731,19.934,46.888,19.555,71.145-20.947,2.3-40.337,8.548-65.182,8.893V18.91ZM123.235,35.585L110.2,91.167C95.548,89.324,82.647,80.557,71.09,74.492l5.432-6.67C90.64,61.092,110.392,46.013,123.235,35.585Zm155.349,0c19,9.114,41.158,22.493,53.231,38.907h-2.173c-7.536,7.59-24.7,14.875-36.936,16.675ZM98.249,196.773h-79.3c-0.746-41.3,17.547-88.809,40.2-107.829l46.713,21.121C103.351,137.343,98.929,166.2,98.249,196.773Zm285.711,0h-79.3q-3.258-43.906-6.518-87.82l46.713-20.009C363.349,118.6,383.611,148.356,383.96,196.773Zm-191.2,0H116.717c-0.339-29.754,2.854-55.694,6.518-81.15,19.758,2,47.858,3.932,69.527,10v71.145Zm93.426,0H210.143c-0.28-12.724-2.759-65.517,2.173-71.145,12.054-4.709,54.63-8.458,67.354-10C283,141.271,286.08,166.881,286.188,196.773ZM18.945,214.559h80.39c-0.5,30.54,1,62.348,8.691,86.708-19.609,3.365-32.643,16.03-49.972,21.121C39.556,292.727,19.294,262.976,18.945,214.559Zm97.772,0h76.045q-0.543,36.124-1.087,72.257c-26.028-.4-46.221,5.08-67.354,8.893C123.191,269.32,117.019,244.117,116.717,214.559ZM400.08,244.381C427.93,109.121,319.7-.744,186.244.012l-51.059,10C78.115,32.038,34.438,75.43,12.427,133.409-38.56,267.718,75.2,428.234,210.105,412.234c2.18-.258.038-173.962,0.038-197.675h76.045c0.047,6.433-.211,12.655-0.66,18.726,5.766-2.219,13.922-5.468,18.012-7.1,0-2.25.03-7.767,0.03-11.623h80.39a150.517,150.517,0,0,1-1.061,20.3C388.488,238.082,390.2,239.181,400.08,244.381ZM192.762,304.6v87.82a114.308,114.308,0,0,1-41.282-6.67c-1.814-7.894-26.149-66.966-22.813-72.257C130.847,310.036,182.142,304.561,192.762,304.6Zm-83.65,14.451c5.715,4.96,16.69,48.148,19.555,57.806-23.594-5.049-40.8-25.86-57.577-38.908l1.086-2.223Z"/>
  <path id="Color_Fill_2" data-name="Color Fill 2" class="cls-2" d="M394.015,250.144L289.1,303.108v42.971l-25.979-13.99,0.038-41.421,104.149-53.735Z"/>
  <path id="rapidDelivery_1" data-name="rapidDelivery 1" class="cls-1" d="M545.994,345.787V124h94.4s53.944,13.1,53.944,67.208S660.625,251.7,660.625,251.7l53.944,94.091H653.882l-53.944-87.371v87.371H545.994Zm53.944-181.462v73.929s33.715-14.7,33.715-40.325S599.938,164.325,599.938,164.325ZM856.172,332.346s-28.6,13.441-60.687,13.441-74.173-1.695-74.173-53.766,64.457-54.109,80.916-53.767c0-2.8,4.062-10.1,0-13.442-1.853-1.523-14.686-7.026-26.972-6.721-14.656.364-29.272,6.721-33.715,6.721-8.168,0-3.512-19.942-13.486-26.883-7.874-5.48,27.564-13.442,53.944-13.442,11.819,0,33.52-1.124,47.2,6.721,11.077,6.352,20.229,18.758,20.229,33.6C849.429,251.71,856.172,332.346,856.172,332.346Zm-47.2-60.488v33.6H775.256s-14.695,1.484-13.486-20.162C762.868,265.635,808.971,271.858,808.971,271.858Zm74.173-87.371-20.229,26.884v6.72h26.972V413h47.2v-73.93h60.687c-1.111,0,40.455-22.754,40.455-80.65s-38.647-73.929-60.684-73.929-32.017,13.442-40.458,13.442h-6.743V184.487h-47.2Zm182.056,161.3h47.21v-161.3H1065.2l-20.22,26.884v6.72h20.22v127.7Zm0-215.066v40.325h47.21V130.721H1065.2Zm168.58,0L1213.55,157.6v6.721h26.97v20.162h-47.2s-53.94,25.405-53.94,80.65,47.2,80.65,47.2,80.65,109.12,2.038,94.4-6.721V130.721h-47.2Zm6.74,94.091v73.929h-33.71s-20.23-3.8-20.23-33.6,20.23-40.325,20.23-40.325h33.71ZM1321.44,124V345.787h94.4s80.92-13.207,80.92-107.533S1415.84,124,1415.84,124h-94.4Zm47.2,40.325V305.462h33.71s40.46-10.463,40.46-67.208-40.46-73.929-40.46-73.929h-33.71M937.088,238.254v60.487H964.06s26.971-.386,26.971-33.6-9.819-40.325-26.971-40.325S937.088,238.254,937.088,238.254Zm586.642,20.162c0-66.289,44.01-73.929,67.43-73.929s74.17-.837,74.17,60.488v33.6h-94.4s0.72,26.883,20.23,26.883,33.71-20.162,33.71-20.162l40.46,20.162s-29.22,40.325-74.17,40.325S1523.73,324.705,1523.73,258.416Zm47.2-13.441h53.94s1.49-26.884-26.97-26.884S1570.93,244.975,1570.93,244.975ZM1692.3,124V305.462c0,21.965,27.23,33.756,27.23,33.756l53.69-.152v-33.6h-20.23c-7.36,0-13.49-7-13.49-13.441V124h-47.2Zm101.15,60.487-20.23,26.884v6.72h20.23V339.066h47.2V184.487h-47.2Zm0-53.766v40.325h47.2V130.721h-47.2Zm67.43,53.766v6.721h6.74l47.2,147.858h53.95l53.94-147.858h6.74v-6.721h-60.68l-20.23,94.092h-6.75l-26.97-94.092h-53.94Zm168.57,73.929c0-66.289,44.02-73.929,67.43-73.929s74.17-.837,74.17,60.488v33.6h-94.4s0.72,20.162,20.23,20.162S2130.6,285.3,2130.6,285.3l40.45,20.162s-29.21,33.6-74.17,33.6S2029.45,324.705,2029.45,258.416Zm47.2-13.441h53.95s1.48-26.884-26.97-26.884S2076.65,244.975,2076.65,244.975Zm121.38,94.091h40.45V244.975c0-6.315,19.13-26.45,47.21-26.884v-33.6h-33.72s-11.77,14.981-13.49,13.442,0-13.442,0-13.442h-47.2l-13.48,26.884v6.72h20.23V339.066Zm101.14-154.579,47.2,154.579h26.97s-0.41,19.236-6.74,26.884c-6.2,7.494-33.71,6.721-33.71,6.721l-13.49,33.6s57,10.205,74.17-20.163S2461,184.487,2461,184.487h-47.2l-26.97,107.534h-6.74l-26.97-107.534h-53.95Z"/>
</svg>
